<?xml version="1.0" encoding="UTF-8"?>
<svg id="Layer_2" data-name="Layer 2" xmlns="http://www.w3.org/2000/svg" viewBox="0 0 20 20">
  <defs>
    <style>
      .cls-1 {
        fill: #fff;
      }

      .cls-1, .cls-2 {
        stroke-width: 0px;
      }

      .cls-2 {
        fill: #007ebb;
        fill-rule: evenodd;
      }
    </style>
  </defs>
  <g id="Logo_FIXED" data-name="Logo — FIXED">
    <g>
      <rect class="cls-1" x="2" y="2" width="16" height="16"/>
      <path class="cls-2" d="m17.78,0H2.22C.99,0,0,.99,0,2.22v15.56c0,1.23.99,2.22,2.22,2.22h15.56c1.23,0,2.22-.99,2.22-2.22V2.22c0-1.23-.99-2.22-2.22-2.22ZM6.05,17.22h-2.98V7.59h2.98v9.63Zm-1.51-10.89c-.97,0-1.76-.8-1.76-1.78s.79-1.78,1.76-1.78,1.76.8,1.76,1.78-.79,1.78-1.76,1.78Zm12.68,10.89h-2.97v-5.05c0-1.39-.53-2.16-1.62-2.16-1.19,0-1.82.81-1.82,2.16v5.05h-2.86V7.59h2.86v1.3s.86-1.59,2.9-1.59,3.5,1.25,3.5,3.83v6.1Z"/>
    </g>
  </g>
</svg>