<?xml version="1.0" encoding="UTF-8"?>
<svg id="Layer_2" data-name="Layer 2" xmlns="http://www.w3.org/2000/svg" viewBox="0 0 40 40">
  <defs>
    <style>
      .cls-1 {
        fill: #fff;
      }

      .cls-1, .cls-2 {
        stroke-width: 0px;
      }

      .cls-2 {
        fill: #007ebb;
        fill-rule: evenodd;
      }
    </style>
  </defs>
  <g id="Logo_FIXED" data-name="Logo — FIXED">
    <g>
      <rect class="cls-1" x="4" y="4" width="32" height="32"/>
      <path class="cls-2" d="m35.56,0H4.44C1.99,0,0,1.99,0,4.44v31.11c0,2.45,1.99,4.44,4.44,4.44h31.11c2.45,0,4.44-1.99,4.44-4.44V4.44c0-2.45-1.99-4.44-4.44-4.44ZM12.09,34.44h-5.96V15.19h5.96v19.26Zm-3.01-21.78c-1.95,0-3.53-1.59-3.53-3.55s1.58-3.55,3.53-3.55,3.53,1.59,3.53,3.55-1.58,3.55-3.53,3.55Zm25.36,21.78h-5.94v-10.11c0-2.77-1.05-4.32-3.25-4.32-2.39,0-3.63,1.61-3.63,4.32v10.11h-5.72V15.19h5.72v2.59s1.72-3.18,5.81-3.18,7.01,2.49,7.01,7.65v12.19Z"/>
    </g>
  </g>
</svg>