<?xml version="1.0" encoding="UTF-8"?>
<svg id="Layer_2" data-name="Layer 2" xmlns="http://www.w3.org/2000/svg" viewBox="0 0 40 40">
  <defs>
    <style>
      .cls-1 {
        fill: #fff;
      }

      .cls-1, .cls-2 {
        stroke-width: 0px;
      }

      .cls-2 {
        fill: #231f20;
      }
    </style>
  </defs>
  <g id="Logo_FIXED" data-name="Logo — FIXED">
    <g>
      <rect class="cls-1" x="5" y="5" width="30" height="30"/>
      <path class="cls-2" d="m0,0v40h40V0H0Zm33.75,12.31v18.54s-.04,0-.06,0c-3.23,0-6.45,0-9.68,0-.09,0-.1-.03-.1-.11,0-1,0-2,0-2.99,0-.09.03-.1.11-.1.61,0,1.22,0,1.82,0,.11,0,.13-.02.13-.13,0-4.64,0-9.29,0-13.93,0-.03,0-.05,0-.08,0-.03,0-.05-.04-.05-.03,0-.06,0-.07.03,0,.02-.01.04-.02.06-.51,1.85-1.02,3.69-1.53,5.54-1.08,3.89-2.15,7.77-3.22,11.66-.02.07-.04.1-.12.1-1.18,0-2.36,0-3.54,0-.08,0-.1-.03-.12-.1-.15-.58-.31-1.16-.47-1.73-1.15-4.21-2.3-8.41-3.45-12.62-.26-.95-.52-1.89-.77-2.84-.02-.06-.02-.11-.11-.1-.08.01-.04.07-.04.11,0,4.66,0,9.32,0,13.98,0,.09.02.1.11.1.62,0,1.24,0,1.86,0,.09,0,.1.03.1.11,0,1,0,2,0,2.99,0,.08-.02.11-.1.11-1.05,0-2.1,0-3.14,0-1.63,0-3.26,0-4.89,0-.08,0-.1-.02-.1-.11,0-1,0-2,0-2.99,0-.09.03-.11.11-.11.27,0,.54,0,.8,0,.45.02.76-.2,1.01-.54.09-.12.13-.26.13-.42,0-4.44,0-8.89,0-13.33,0-.18-.05-.33-.15-.47-.1-.14-.21-.26-.35-.36-.19-.14-.4-.22-.64-.21-.28,0-.55,0-.83,0-.09,0-.11-.02-.11-.11,0-.99,0-1.98,0-2.97,0-.09.02-.12.12-.12,3.36,0,6.72,0,10.08,0,.09,0,.12.02.14.11,1.04,3.87,2.08,7.75,3.12,11.62.07.27.14.53.21.8,0,.04.02.07.07.06.04,0,.05-.03.06-.06,0-.02.01-.04.02-.06,1.12-4.12,2.23-8.23,3.35-12.35.03-.1.06-.12.16-.12,3.38,0,6.77,0,10.15,0v3.2Z"/>
    </g>
  </g>
</svg>