<?xml version="1.0" encoding="UTF-8"?>
<svg id="Layer_2" data-name="Layer 2" xmlns="http://www.w3.org/2000/svg" viewBox="0 0 20 20">
  <defs>
    <style>
      .cls-1 {
        fill: #fff;
      }

      .cls-1, .cls-2 {
        stroke-width: 0px;
      }

      .cls-2 {
        fill: #231f20;
      }
    </style>
  </defs>
  <g id="Logo_FIXED" data-name="Logo — FIXED">
    <g>
      <rect class="cls-1" x="2.5" y="2.5" width="15" height="15"/>
      <path class="cls-2" d="m0,0v20h20V0H0Zm16.87,6.15v9.27s-.02,0-.03,0c-1.61,0-3.23,0-4.84,0-.04,0-.05-.01-.05-.05,0-.5,0-1,0-1.5,0-.04.01-.05.05-.05.3,0,.61,0,.91,0,.05,0,.07-.01.07-.07,0-2.32,0-4.64,0-6.97,0-.01,0-.03,0-.04,0-.01,0-.02-.02-.02-.01,0-.03,0-.04.02,0,.01,0,.02,0,.03-.26.92-.51,1.85-.77,2.77-.54,1.94-1.08,3.89-1.61,5.83,0,.03-.02.05-.06.05-.59,0-1.18,0-1.77,0-.04,0-.05-.01-.06-.05-.08-.29-.16-.58-.24-.87-.57-2.1-1.15-4.21-1.72-6.31-.13-.47-.26-.95-.39-1.42,0-.03-.01-.06-.05-.05-.04,0-.02.04-.02.05,0,2.33,0,4.66,0,6.99,0,.04.01.05.05.05.31,0,.62,0,.93,0,.04,0,.05.01.05.05,0,.5,0,1,0,1.5,0,.04,0,.05-.05.05-.52,0-1.05,0-1.57,0-.82,0-1.63,0-2.45,0-.04,0-.05-.01-.05-.05,0-.5,0-1,0-1.5,0-.05.01-.05.06-.05.13,0,.27,0,.4,0,.22,0,.38-.1.51-.27.05-.06.07-.13.07-.21,0-2.22,0-4.44,0-6.67,0-.09-.02-.16-.07-.24-.05-.07-.11-.13-.17-.18-.09-.07-.2-.11-.32-.11-.14,0-.28,0-.41,0-.05,0-.06-.01-.05-.06,0-.5,0-.99,0-1.49,0-.05,0-.06.06-.06,1.68,0,3.36,0,5.04,0,.04,0,.06.01.07.05.52,1.94,1.04,3.87,1.56,5.81.04.13.07.27.11.4,0,.02.01.03.03.03.02,0,.03-.02.03-.03,0-.01,0-.02,0-.03.56-2.06,1.12-4.12,1.67-6.17.01-.05.03-.06.08-.06,1.69,0,3.38,0,5.08,0v1.6Z"/>
    </g>
  </g>
</svg>