<?xml version="1.0" encoding="UTF-8"?>
<svg id="Layer_2" data-name="Layer 2" xmlns="http://www.w3.org/2000/svg" viewBox="0 0 20 20">
  <defs>
    <style>
      .cls-1 {
        fill: #1d9bf0;
      }

      .cls-1, .cls-2 {
        stroke-width: 0px;
      }

      .cls-2 {
        fill: #fff;
      }
    </style>
  </defs>
  <g id="Logo_FIXED" data-name="Logo — FIXED">
    <g>
      <rect class="cls-2" x="3.85" y="3.5" width="13" height="13"/>
      <path class="cls-1" d="m10,0C4.48,0,0,4.48,0,10s4.48,10,10,10,10-4.48,10-10S15.52,0,10,0Zm5.02,8.1c0,.1,0,.21,0,.31,0,3.19-2.42,6.86-6.86,6.86-1.36,0-2.63-.4-3.7-1.08.19.02.38.03.58.03,1.13,0,2.17-.39,2.99-1.03-1.06-.02-1.95-.72-2.25-1.67.15.03.3.04.45.04.22,0,.43-.03.64-.08-1.1-.22-1.93-1.2-1.93-2.36,0-.01,0-.02,0-.03.32.18.7.29,1.09.3-.65-.43-1.07-1.17-1.07-2.01,0-.44.12-.86.33-1.21,1.19,1.46,2.97,2.42,4.97,2.52-.04-.18-.06-.36-.06-.55,0-1.33,1.08-2.41,2.41-2.41.69,0,1.32.29,1.76.76.55-.11,1.06-.31,1.53-.59-.18.56-.56,1.04-1.06,1.33.49-.06.95-.19,1.38-.38-.32.48-.73.91-1.2,1.25Z"/>
    </g>
  </g>
</svg>