<?xml version="1.0" encoding="UTF-8"?>
<svg id="Layer_2" data-name="Layer 2" xmlns="http://www.w3.org/2000/svg" viewBox="0 0 40 40">
  <defs>
    <style>
      .cls-1 {
        fill: #1d9bf0;
      }

      .cls-1, .cls-2 {
        stroke-width: 0px;
      }

      .cls-2 {
        fill: #fff;
      }
    </style>
  </defs>
  <g id="Logo_FIXED" data-name="Logo — FIXED">
    <g>
      <rect class="cls-2" x="7.7" y="7" width="26" height="26"/>
      <path class="cls-1" d="m20,0C8.95,0,0,8.95,0,20s8.95,20,20,20,20-8.95,20-20S31.05,0,20,0Zm10.04,16.21c0,.21.01.41.01.62,0,6.37-4.85,13.72-13.72,13.72-2.72,0-5.26-.8-7.39-2.17.38.04.76.07,1.15.07,2.26,0,4.34-.77,5.99-2.06-2.11-.04-3.89-1.43-4.5-3.35.29.06.6.09.91.09.44,0,.87-.06,1.27-.17-2.21-.44-3.87-2.39-3.87-4.73,0-.02,0-.04,0-.06.65.36,1.39.58,2.18.6-1.29-.86-2.15-2.34-2.15-4.01,0-.88.24-1.71.65-2.42,2.38,2.92,5.93,4.84,9.94,5.04-.08-.35-.13-.72-.13-1.1,0-2.66,2.16-4.82,4.82-4.82,1.39,0,2.64.59,3.52,1.52,1.1-.22,2.13-.62,3.06-1.17-.36,1.13-1.12,2.07-2.12,2.67.98-.12,1.9-.38,2.77-.76-.65.97-1.46,1.82-2.41,2.5Z"/>
    </g>
  </g>
</svg>