<?xml version="1.0" encoding="UTF-8"?>
<svg id="Layer_2" data-name="Layer 2" xmlns="http://www.w3.org/2000/svg" xmlns:xlink="http://www.w3.org/1999/xlink" viewBox="0 0 120 60">
  <defs>
    <style>
      .cls-1 {
        fill: #63adec;
      }

      .cls-1, .cls-2, .cls-3 {
        stroke-width: 0px;
      }

      .cls-2 {
        fill: none;
      }

      .cls-4 {
        clip-path: url(#clippath-1);
      }

      .cls-3 {
        fill: #fff;
      }

      .cls-5 {
        clip-path: url(#clippath);
      }
    </style>
    <clipPath id="clippath">
      <rect class="cls-2" width="120" height="60"/>
    </clipPath>
    <clipPath id="clippath-1">
      <rect class="cls-2" y="6" width="120" height="49.73"/>
    </clipPath>
  </defs>
  <g id="Ebene_1" data-name="Ebene 1">
    <g class="cls-5">
      <g>
        <path class="cls-3" d="m49.21,37.78h0c0,1.84-1.5,3.33-3.33,3.33h-11.76c-1.84,0-3.33-1.5-3.33-3.33h0c0-1.84,1.5-3.33,3.33-3.33h11.76c1.84,0,3.33,1.5,3.33,3.33Z"/>
        <path class="cls-3" d="m49.23,19.89h0c0,1.84-1.5,3.33-3.33,3.33h-11.76c-1.84,0-3.33-1.5-3.33-3.33h0c0-1.84,1.5-3.33,3.33-3.33h11.76c1.84,0,3.33,1.5,3.33,3.33Z"/>
        <path class="cls-3" d="m45.58,28.85h0c0,1.84-1.5,3.33-3.33,3.33h-8.11c-1.84,0-3.33-1.5-3.33-3.33h0c0-1.84,1.5-3.33,3.33-3.33h8.11c1.84,0,3.33,1.5,3.33,3.33Z"/>
        <path class="cls-3" d="m23.39,16.75h0c-1.71-.88-3.81-.2-4.68,1.53h0l-5.9,11.6-5.85-11.48c-.88-1.71-2.98-2.39-4.7-1.53-1.71.88-2.39,2.98-1.51,4.7h0l8.96,17.56c.88,1.71,2.98,2.39,4.68,1.51h0c.54-.26.98-.65,1.3-1.15.1-.13.18-.26.26-.41l8.98-17.63c.88-1.72.2-3.82-1.53-4.7Z"/>
        <path class="cls-3" d="m112.31,28.72l6.46-6.46c1.22-1.41,1.07-3.55-.33-4.76-1.28-1.11-3.19-1.11-4.46,0l-6.44,6.44-6.46-6.44c-1.32-1.32-3.45-1.32-4.76,0h0c-1.32,1.32-1.32,3.45,0,4.76h0l6.44,6.46-6.44,6.44c-1.32,1.32-1.32,3.46,0,4.78h0c1.32,1.32,3.45,1.32,4.76,0h0l6.46-6.44,6.44,6.44c1.37,1.28,3.5,1.2,4.78-.16,1.22-1.3,1.22-3.32,0-4.62l-6.46-6.44Z"/>
        <path class="cls-1" d="m80.24,41.34c-7.01-.02-12.68-5.69-12.67-12.7.02-7.01,5.69-12.68,12.7-12.67s12.68,5.69,12.67,12.7c0,3.37-1.35,6.59-3.72,8.96h0c-2.37,2.39-5.61,3.72-8.98,3.71Zm0-19.29c-3.64,0-6.6,2.96-6.6,6.6s2.96,6.6,6.6,6.6c1.76,0,3.43-.7,4.67-1.94h0c2.59-2.59,2.57-6.77,0-9.33-1.24-1.24-2.91-1.94-4.67-1.94Z"/>
        <g class="cls-4">
          <path class="cls-1" d="m61.67,7.11c-.62-.55-1.41-.86-2.24-.86h-6.68c-1.87,0-3.38,1.51-3.38,3.38s1.51,3.38,3.38,3.38h3.24v24.8c0,1.92,1.56,3.48,3.48,3.48h.02c1.92,0,3.48-1.56,3.48-3.48h0V9.81c0-1.04-.47-2.03-1.28-2.7Z"/>
        </g>
      </g>
      <g>
        <path class="cls-3" d="m31.68,49.46c.26-.13.55-.19.84-.19.36-.02.71.08,1,.27.31.18.55.45.71.78.34.74.34,1.6,0,2.34-.16.32-.4.6-.71.79-.29.19-.65.29-1,.27-.29.02-.58-.05-.84-.18-.23-.13-.42-.29-.58-.5v.61h-1.1v-5.79h1.1v2.08c.15-.23.34-.39.58-.5Zm1.54,1.34c-.1-.18-.24-.32-.42-.44-.18-.1-.37-.15-.57-.15s-.39.05-.55.16c-.18.1-.34.26-.44.44-.19.44-.19.92,0,1.36.11.18.26.34.44.45.16.1.36.15.55.15.42,0,.79-.24.99-.6.11-.21.18-.45.16-.69,0-.24-.05-.47-.16-.68h0Z"/>
        <path class="cls-3" d="m40.49,49.33v4.33h-1.11v-.55c-.15.19-.32.36-.55.45-.53.21-1.11.19-1.63-.06-.26-.15-.47-.37-.61-.63-.16-.31-.23-.66-.23-1v-2.54h1.1v2.39c-.02.29.08.57.26.79.18.19.44.29.69.27.26.02.52-.08.71-.27.18-.23.27-.5.26-.79v-2.39h1.11Z"/>
        <path class="cls-3" d="m42.73,48.64c-.13-.11-.19-.29-.19-.47s.06-.34.19-.45.29-.18.47-.18.36.06.48.18c.13.11.19.27.19.45s-.06.36-.19.47-.31.18-.48.18-.34-.06-.47-.18Zm1.02.69v4.33h-1.1v-4.33h1.1Z"/>
        <path class="cls-3" d="m47.02,47.88v5.79h-1.1v-5.79h1.1Z"/>
        <path class="cls-3" d="m49.17,50.32c.16-.32.42-.6.73-.78.29-.19.65-.29,1-.27.27,0,.55.06.81.18.24.11.45.27.61.48v-2.05h1.1v5.79h-1.1v-.65c-.15.23-.34.4-.58.52-.26.13-.57.19-.86.19-.36.02-.69-.08-.99-.27-.31-.19-.57-.47-.73-.79-.34-.74-.34-1.6,0-2.34Zm2.99.5c-.1-.18-.24-.34-.42-.44-.16-.11-.37-.16-.57-.16s-.39.05-.57.15c-.18.11-.31.26-.42.44-.21.42-.21.94,0,1.36.1.19.24.34.42.45.16.11.37.16.57.16s.39-.05.57-.15c.18-.11.32-.26.42-.45.11-.21.18-.44.16-.68,0-.24-.05-.47-.16-.68h0Z"/>
        <path class="cls-3" d="m60.53,50.23h-.76v3.43h-1.11v-3.43h-.48v-.9h.48v-.21c0-.53.16-.94.45-1.18s.76-.37,1.37-.36v.92c-.19-.02-.39.03-.55.15-.11.08-.16.26-.16.5v.18h.76v.9h0Z"/>
        <path class="cls-3" d="m62.32,50.32c.15-.32.4-.6.71-.78.29-.19.65-.29,1-.27.55-.02,1.08.24,1.42.68v-.61h1.11v4.33h-1.11v-.63c-.15.21-.34.39-.58.5-.26.13-.57.19-.86.19-.36.02-.69-.08-.99-.27-.31-.19-.55-.47-.71-.79-.37-.74-.37-1.6,0-2.34h0Zm2.99.5c-.1-.18-.26-.34-.44-.44-.16-.11-.37-.16-.57-.16s-.39.05-.57.15c-.16.11-.31.26-.42.44-.19.44-.19.92,0,1.36.1.19.24.36.44.45.16.11.36.16.55.16s.39-.05.57-.15c.18-.11.32-.27.44-.45.1-.21.16-.44.15-.68,0-.24-.05-.47-.15-.68h0Z"/>
        <path class="cls-3" d="m69.43,53.55c-.26-.11-.48-.31-.66-.53-.16-.21-.26-.47-.27-.73h1.1c.02.16.11.32.24.42.31.19.71.21,1.03.05.11-.08.18-.19.18-.32,0-.15-.1-.27-.23-.32-.23-.1-.45-.18-.68-.23-.27-.06-.53-.15-.79-.24-.21-.08-.39-.21-.53-.39-.16-.19-.24-.44-.23-.69,0-.24.08-.47.21-.66.16-.21.36-.37.6-.47.29-.11.6-.18.9-.16.45-.02.89.11,1.24.39.31.26.48.63.5,1.03h-1.05c-.02-.16-.08-.31-.21-.4-.15-.11-.34-.16-.52-.16-.16,0-.31.03-.45.11-.1.06-.16.18-.16.31,0,.15.1.27.23.34.23.1.45.16.68.23l.78.24c.19.08.37.21.52.39.16.19.24.44.24.69,0,.24-.08.47-.21.66-.15.21-.36.37-.6.47-.29.11-.6.18-.9.16-.32.02-.65-.05-.95-.18Z"/>
        <path class="cls-3" d="m75.36,50.23v2.08c-.02.11.02.23.1.32.1.06.23.11.36.1h.52v.92h-.69c-.92,0-1.37-.45-1.37-1.34v-2.08h-.52v-.9h.52v-1.07h1.1v1.07h.97v.9h-.97Z"/>
        <path class="cls-3" d="m82.21,51.82h-3.17c0,.27.11.55.32.74.19.18.45.27.71.26.37.03.71-.18.87-.52h1.18c-.13.42-.39.78-.73,1.03-.73.47-1.65.52-2.42.11-.32-.18-.6-.45-.78-.78-.37-.74-.37-1.62,0-2.36.18-.32.44-.6.76-.78.34-.19.74-.29,1.13-.27.39-.02.78.08,1.11.26.32.18.58.44.76.76.18.34.27.73.27,1.12,0,.15-.02.27-.03.42Zm-1.12-.73c.02-.26-.1-.52-.31-.68-.21-.18-.47-.26-.73-.26s-.5.08-.68.26c-.19.18-.31.42-.34.68h2.05Z"/>
        <path class="cls-3" d="m85.77,49.46c.24-.13.52-.19.79-.19v1.15h-.29c-.36,0-.61.08-.78.24-.18.16-.27.45-.27.86v2.15h-1.08v-4.33h1.08v.68c.13-.23.32-.42.55-.55Z"/>
        <path class="cls-3" d="m90,52.79c0,.68-.53,1.21-1.23,1.21s-1.23-.53-1.23-1.21.55-1.2,1.23-1.2c.69,0,1.23.53,1.23,1.2Zm-2.15,0c0,.53.39.95.94.95.52,0,.9-.42.9-.95s-.39-.95-.92-.95c-.52,0-.92.44-.92.95Zm.74.63h-.27v-1.2c.11-.02.26-.03.45-.03.23,0,.32.03.42.08.06.05.11.15.11.26,0,.13-.1.23-.24.27v.02c.11.05.18.13.23.29.03.18.06.26.08.29h-.29s-.06-.15-.1-.29c-.02-.13-.1-.19-.24-.19h-.13v.5h-.02Zm0-.68h.13c.15,0,.27-.05.27-.18,0-.11-.08-.18-.26-.18-.08,0-.13,0-.15.02v.34Z"/>
      </g>
    </g>
  </g>
</svg>